<?xml version="1.0" encoding="utf-8"?>
<svg version="1.0"
  xmlns="http://www.w3.org/2000/svg" width="24" height="24" viewBox="0 0 512.000000 512.000000" preserveAspectRatio="xMidYMid meet">
  <g transform="translate(0.000000,512.000000) scale(0.100000,-0.100000)" fill="#000000" stroke="none">
    <path d="M2330 5114 c-14 -2 -65 -9 -115 -15 -268 -32 -522 -111 -790 -244
-271 -134 -453 -264 -666 -475 -217 -215 -366 -422 -499 -695 -174 -355 -248
-660 -257 -1060 -7 -314 23 -547 107 -819 276 -896 1031 -1581 1940 -1760 206
-41 310 -49 578 -43 249 5 335 15 537 62 343 80 709 259 993 486 116 93 307
282 400 398 295 366 485 812 547 1284 20 157 20 497 0 654 -152 1165 -1068
2073 -2235 2218 -112 13 -466 19 -540 9z m520 -450 c639 -83 1237 -487 1556
-1051 193 -341 279 -669 278 -1063 -1 -295 -46 -526 -155 -794 -125 -309 -349
-614 -609 -831 -296 -247 -663 -410 -1060 -472 -155 -23 -442 -23 -600 0 -693
105 -1286 533 -1597 1152 -153 303 -225 611 -225 955 -1 1037 744 1917 1772
2095 205 36 411 39 640 9z"></path>
    <path d="M2495 4129 c-85 -44 -1480 -986 -1500 -1012 -19 -28 -20 -43 -23
-544 -2 -501 -2 -517 18 -558 19 -38 78 -80 768 -541 l747 -499 55 0 55 0 750
500 c625 417 753 506 767 535 16 32 18 80 18 548 0 456 -2 518 -16 549 -14 29
-132 111 -753 525 -405 270 -750 497 -768 505 -44 18 -71 16 -118 -8z m-75
-702 l0 -304 -288 -191 c-158 -106 -291 -192 -296 -192 -15 0 -447 293 -444
302 3 7 1018 688 1026 688 1 0 2 -137 2 -303z m1303 -375 c16 -14 0 -27 -210
-167 l-228 -152 -285 192 -285 193 -3 306 -2 306 497 -332 c274 -182 506 -338
516 -346z m-716 -485 c8 -9 -43 -48 -217 -165 l-229 -153 -231 155 -231 155
231 154 232 155 216 -145 c120 -79 222 -150 229 -156z m-1438 -7 c0 -4 -179
-128 -280 -193 l-29 -19 0 211 0 211 154 -102 c85 -57 155 -105 155 -108z
m2291 -5 l0 -205 -152 101 c-84 56 -155 103 -156 105 -5 3 290 203 301 203 4
1 7 -91 7 -204z m-1726 -370 l285 -190 1 -302 c0 -167 -2 -303 -5 -303 -3 0
-237 154 -520 343 l-515 344 223 151 c122 83 227 150 233 149 7 -1 140 -87
298 -192z m1382 44 c124 -83 224 -152 222 -154 -4 -3 -996 -667 -1015 -678
-11 -7 -13 49 -13 296 l0 305 283 190 c155 105 285 191 290 192 4 0 109 -68
233 -151z"></path>
  </g>
</svg>